<?xml version="1.0" standalone="no"?>
<!DOCTYPE svg PUBLIC "-//W3C//DTD SVG 20010904//EN"
 "http://www.w3.org/TR/2001/REC-SVG-20010904/DTD/svg10.dtd">
<svg version="1.0" xmlns="http://www.w3.org/2000/svg"
 width="160.000000pt" height="26.000000pt" viewBox="0 0 160.000000 26.000000"
 preserveAspectRatio="xMidYMid meet">
<metadata>
Created by potrace 1.16, written by Peter Selinger 2001-2019
</metadata>
<g transform="translate(0.000000,26.000000) scale(0.100000,-0.100000)"
fill="#000000" stroke="none">
<path d="M433 202 c-12 -2 -33 -16 -46 -31 l-23 -28 -17 28 c-15 27 -20 29
-82 29 l-65 0 0 -95 0 -95 29 0 c26 0 30 4 33 32 l3 33 18 -33 c14 -25 24 -32
47 -32 34 0 35 1 17 38 -11 22 -12 31 -1 52 l14 25 0 -33 c0 -49 37 -82 92
-82 56 0 77 13 62 37 -7 12 -24 18 -48 18 -33 0 -55 15 -56 38 0 19 39 44 63
40 13 -3 28 0 31 6 17 27 26 5 26 -64 l0 -75 30 0 c28 0 30 3 30 35 0 24 5 35
15 35 10 0 15 -11 15 -35 0 -32 2 -35 30 -35 l30 0 0 96 0 95 -27 -3 c-23 -2
-29 -8 -31 -35 -5 -47 -32 -44 -32 2 0 32 -2 35 -29 35 -16 0 -31 -6 -34 -12
-3 -10 -7 -10 -18 -2 -18 14 -48 21 -76 16z"/>
<path d="M75 188 c-18 -48 -55 -163 -55 -170 0 -14 50 -8 56 7 4 8 16 15 29
15 13 0 25 -7 29 -15 7 -18 56 -20 56 -2 0 6 -13 48 -29 92 -25 70 -32 80 -55
83 -15 2 -28 -2 -31 -10z"/>
<path d="M750 105 l0 -95 66 0 c62 0 65 1 62 22 -2 18 -11 24 -35 26 -38 4
-45 22 -8 22 14 0 25 4 25 9 0 23 -14 41 -31 41 -32 0 -21 19 14 22 24 2 33 8
35 26 3 21 0 22 -62 22 l-66 0 0 -95z"/>
<path d="M1068 158 c-3 -24 -1 -47 3 -53 5 -5 9 11 9 37 l0 46 81 1 c61 1 80
-2 77 -11 -3 -7 -19 -14 -36 -16 -24 -2 -32 -8 -32 -23 0 -12 7 -19 19 -19 10
0 21 -7 25 -15 4 -11 -1 -15 -19 -15 -18 0 -25 -5 -25 -20 0 -16 7 -20 31 -20
22 0 32 -5 36 -20 12 -44 18 -15 15 70 -3 85 -2 90 17 90 20 0 21 -6 21 -90 0
-53 4 -90 10 -90 6 0 10 10 11 23 l0 22 11 -22 c6 -13 15 -23 20 -23 6 0 -2
20 -16 46 l-25 45 21 45 c17 33 28 44 46 44 l23 0 -25 -41 -24 -42 26 -48 c15
-27 31 -49 35 -49 5 0 -3 21 -18 46 l-28 47 22 44 c11 24 21 46 21 48 0 3 -15
5 -33 5 -25 0 -37 -6 -45 -22 l-11 -23 0 23 c-1 22 -3 22 -120 22 l-119 0 -4
-42z"/>
</g>
</svg>
